<?xml version="1.0" encoding="UTF-8" standalone="no"?>
<!-- Created with Inkscape (http://www.inkscape.org/) -->

<svg
   xmlns:dc="http://purl.org/dc/elements/1.1/"
   xmlns:cc="http://creativecommons.org/ns#"
   xmlns:rdf="http://www.w3.org/1999/02/22-rdf-syntax-ns#"
   xmlns:svg="http://www.w3.org/2000/svg"
   xmlns="http://www.w3.org/2000/svg"
   xmlns:sodipodi="http://sodipodi.sourceforge.net/DTD/sodipodi-0.dtd"
   xmlns:inkscape="http://www.inkscape.org/namespaces/inkscape"
   width="128"
   height="128"
   viewBox="0 0 33.866666 33.866668"
   version="1.1"
   id="svg16"
   inkscape:version="0.92.0 r15299"
   sodipodi:docname="Connexion.svg">
  <defs
     id="defs10" />
  <sodipodi:namedview
     id="base"
     pagecolor="#ffffff"
     bordercolor="#666666"
     borderopacity="1.0"
     inkscape:pageopacity="0.0"
     inkscape:pageshadow="2"
     inkscape:zoom="7.8555144"
     inkscape:cx="47.773007"
     inkscape:cy="79.425034"
     inkscape:document-units="mm"
     inkscape:current-layer="layer4"
     showgrid="false"
     units="px"
     inkscape:window-width="2736"
     inkscape:window-height="1699"
     inkscape:window-x="-13"
     inkscape:window-y="-13"
     inkscape:window-maximized="1" />
  <metadata
     id="metadata13">
    <rdf:RDF>
      <cc:Work
         rdf:about="">
        <dc:format>image/svg+xml</dc:format>
        <dc:type
           rdf:resource="http://purl.org/dc/dcmitype/StillImage" />
        <dc:title></dc:title>
      </cc:Work>
    </rdf:RDF>
  </metadata>
  <g
     inkscape:label="Layer 1"
     inkscape:groupmode="layer"
     id="layer1"
     transform="translate(0,-263.13332)"
     sodipodi:insensitive="true">
    <circle
       style="fill:#5599ff;fill-rule:evenodd;stroke:none;stroke-width:8;stroke-miterlimit:4;stroke-dasharray:none"
       id="path38"
       cx="16.958494"
       cy="280.0415"
       r="16.958494" />
  </g>
  <g
     inkscape:groupmode="layer"
     id="layer2"
     inkscape:label="Configuration"
     style="display:none">
    <g
       id="g64"
       transform="matrix(1.5939397,0,0,1.5939397,-2.0862129,-2.6690566)"
       style="fill:#ffffff">
      <g
         id="g45"
         style="fill:#ffffff">
        <path
           id="path41"
           d="M 20.045,9.939 18.543,9.786 C 18.447,9.502 18.33,9.219 18.192,8.94 l 0.954,-1.17 c 0.482,-0.591 0.439,-1.443 -0.1,-1.982 L 18.213,4.955 C 17.674,4.416 16.822,4.373 16.231,4.854 l -1.17,0.954 C 14.792,5.675 14.509,5.557 14.215,5.458 L 14.062,3.956 c -0.077,-0.758 -0.71,-1.33 -1.473,-1.33 h -1.178 c -0.762,0 -1.395,0.572 -1.473,1.33 L 9.786,5.457 C 9.501,5.553 9.218,5.67 8.939,5.808 L 7.769,4.854 C 7.178,4.372 6.326,4.415 5.787,4.955 L 4.955,5.787 C 4.416,6.326 4.373,7.178 4.855,7.769 l 0.954,1.17 C 5.676,9.208 5.558,9.491 5.459,9.786 L 3.955,9.939 c -0.758,0.077 -1.33,0.71 -1.33,1.473 v 1.178 c 0,0.762 0.572,1.395 1.33,1.473 l 1.502,0.153 c 0.096,0.284 0.213,0.567 0.351,0.846 l -0.954,1.17 c -0.482,0.591 -0.439,1.443 0.1,1.982 l 0.833,0.833 c 0.539,0.539 1.391,0.582 1.982,0.1 l 1.17,-0.954 c 0.269,0.133 0.552,0.25 0.846,0.35 l 0.153,1.502 c 0.077,0.758 0.71,1.33 1.473,1.33 h 1.178 c 0.762,0 1.395,-0.572 1.473,-1.33 l 0.153,-1.502 c 0.285,-0.096 0.567,-0.213 0.846,-0.351 l 1.17,0.954 c 0.591,0.482 1.443,0.438 1.982,-0.1 l 0.833,-0.833 c 0.539,-0.539 0.582,-1.391 0.1,-1.982 l -0.954,-1.17 c 0.133,-0.269 0.251,-0.552 0.35,-0.846 l 1.502,-0.153 c 0.758,-0.077 1.33,-0.71 1.33,-1.473 v -1.178 c 0.001,-0.762 -0.571,-1.395 -1.329,-1.472 z m 0.343,2.65 c 0,0.254 -0.191,0.465 -0.443,0.491 l -1.827,0.186 c -0.156,0.016 -0.295,0.106 -0.375,0.241 -0.025,0.042 -0.043,0.087 -0.054,0.134 -0.129,0.444 -0.303,0.86 -0.515,1.236 -0.1,0.177 -0.081,0.397 0.047,0.554 l 1.16,1.423 c 0.16,0.197 0.146,0.481 -0.033,0.661 l -0.833,0.833 c -0.179,0.179 -0.464,0.194 -0.661,0.033 l -1.423,-1.16 c -0.123,-0.101 -0.288,-0.134 -0.441,-0.093 -0.046,0.012 -0.089,0.031 -0.129,0.056 -0.405,0.222 -0.822,0.393 -1.237,0.509 -0.196,0.054 -0.338,0.223 -0.359,0.425 l -0.186,1.827 c -0.026,0.253 -0.237,0.444 -0.491,0.444 H 11.41 c -0.254,0 -0.465,-0.191 -0.491,-0.443 L 10.733,18.119 C 10.718,17.967 10.631,17.831 10.501,17.75 10.456,17.722 10.408,17.702 10.358,17.69 9.913,17.56 9.497,17.386 9.122,17.175 8.945,17.075 8.725,17.094 8.568,17.222 l -1.423,1.16 C 6.948,18.543 6.664,18.528 6.484,18.349 L 5.651,17.516 C 5.471,17.337 5.457,17.053 5.618,16.856 l 1.16,-1.423 C 6.878,15.31 6.912,15.146 6.871,14.992 6.859,14.946 6.84,14.903 6.815,14.863 6.593,14.457 6.422,14.041 6.306,13.626 6.252,13.43 6.083,13.288 5.881,13.267 L 4.055,13.08 C 3.802,13.054 3.611,12.843 3.611,12.589 v -1.178 c 0,-0.254 0.191,-0.465 0.443,-0.491 L 5.881,10.734 C 6.033,10.719 6.17,10.633 6.25,10.503 6.28,10.454 6.301,10.402 6.313,10.347 6.442,9.907 6.614,9.496 6.825,9.123 6.925,8.946 6.906,8.726 6.778,8.569 L 5.618,7.146 C 5.458,6.949 5.472,6.665 5.651,6.485 L 6.484,5.652 C 6.663,5.473 6.948,5.458 7.145,5.618 L 8.568,6.779 C 8.692,6.88 8.857,6.914 9.01,6.872 9.056,6.86 9.099,6.841 9.139,6.816 9.544,6.594 9.96,6.423 10.376,6.307 10.572,6.253 10.714,6.084 10.735,5.882 l 0.186,-1.827 c 0.026,-0.253 0.237,-0.444 0.491,-0.444 h 1.178 c 0.254,0 0.465,0.191 0.491,0.443 l 0.186,1.827 c 0.015,0.152 0.102,0.288 0.232,0.369 0.045,0.028 0.093,0.048 0.143,0.06 0.444,0.13 0.86,0.303 1.236,0.515 0.176,0.1 0.396,0.081 0.554,-0.047 l 1.423,-1.16 c 0.198,-0.161 0.482,-0.146 0.661,0.033 l 0.833,0.833 c 0.18,0.18 0.194,0.464 0.033,0.661 l -1.16,1.423 c -0.1,0.123 -0.134,0.287 -0.093,0.441 0.012,0.046 0.031,0.089 0.056,0.129 0.222,0.406 0.393,0.822 0.509,1.237 0.054,0.196 0.223,0.338 0.425,0.359 l 1.827,0.186 c 0.253,0.026 0.444,0.237 0.444,0.491 v 1.178 z"
           inkscape:connector-curvature="0"
           style="fill:#ffffff" />
        <path
           id="path43"
           d="m 12,8.546 c -1.905,0 -3.454,1.549 -3.454,3.454 0,1.905 1.549,3.454 3.454,3.454 1.905,0 3.454,-1.549 3.454,-3.454 0,-1.905 -1.549,-3.454 -3.454,-3.454 z m 0,5.921 C 10.64,14.467 9.533,13.36 9.533,12 9.533,10.64 10.64,9.533 12,9.533 c 1.36,0 2.467,1.107 2.467,2.467 0,1.36 -1.107,2.467 -2.467,2.467 z"
           inkscape:connector-curvature="0"
           style="fill:#ffffff" />
      </g>
    </g>
  </g>
  <g
     inkscape:groupmode="layer"
     id="layer3"
     inkscape:label="Historique"
     style="display:none">
    <g
       id="g107"
       transform="matrix(0.29587624,0,0,0.29825909,2.2450656,1.6671358)"
       style="fill:#ffffff">
      <path
         id="path90"
         d="M 29,33.55 9.91,41.06 C 7.63,41.96 5.81,40.69 5.86,38.24 L 6.27,17.75 C 6.32,15.3 8,14.44 10,15.84 l 7.23,5 A 43.62,43.62 0 0 1 42.41,6.73 44.43,44.43 0 0 1 51.07,6 44,44 0 0 1 92.47,38 q 0.59,2.09 1,4.26 0.2,1.11 0.34,2.22 c 0,0.11 0,0.21 0,0.32 0.08,0.64 0.15,1.28 0.19,1.92 0,0 0,0.05 0,0.08 a 44,44 0 0 1 -33.63,46 l -0.25,0.06 q -1.09,0.25 -2.2,0.45 a 44.53,44.53 0 0 1 -7.85,0.7 43.65,43.65 0 0 1 -25,-7.89 C 25,86 24.92,86 24.84,85.89 A 43.82,43.82 0 0 1 6.9,57.76 3.34,3.34 0 1 1 13.47,56.58 37.33,37.33 0 0 0 52.89,87.18 H 53 c 0.58,0 1.16,-0.11 1.75,-0.18 h 0.14 q 0.94,-0.12 1.89,-0.29 A 37.33,37.33 0 0 0 86,60.14 l 0.07,-0.25 c 0.11,-0.41 0.21,-0.81 0.31,-1.22 0.05,-0.22 0.11,-0.45 0.16,-0.67 0.05,-0.22 0.11,-0.55 0.17,-0.82 0.06,-0.27 0.14,-0.73 0.2,-1.1 0,-0.13 0,-0.27 0.06,-0.41 a 37.53,37.53 0 0 0 -4.3,-23.84 l -0.14,-0.26 c -0.2,-0.36 -0.42,-0.72 -0.64,-1.07 l -0.37,-0.6 -0.47,-0.7 c -0.21,-0.31 -0.41,-0.61 -0.63,-0.91 l -0.26,-0.35 c -0.3,-0.4 -0.59,-0.8 -0.9,-1.19 v 0 A 37.55,37.55 0 0 0 61.94,14.63 h -0.1 C 61.39,14.48 60.93,14.34 60.47,14.21 L 60,14 59,13.74 58.12,13.53 57.49,13.4 56.21,13.16 H 55.97 A 37.37,37.37 0 0 0 22.78,24.72 l 6.69,4.66 c 2.01,1.4 1.79,3.27 -0.47,4.17 z m 37.87,33.32 a 3,3 0 0 0 0,-4.24 L 53,48.76 V 25 a 3,3 0 0 0 -6,0 v 25 a 3,3 0 0 0 0.88,2.12 l 14.75,14.75 a 3,3 0 0 0 4.24,0 z"
         inkscape:connector-curvature="0"
         style="fill:#ffffff" />
    </g>
  </g>
  <g
     inkscape:groupmode="layer"
     id="layer4"
     inkscape:label="Connexion"
     style="display:inline">
    <g
       id="g86"
       transform="matrix(0.1722223,0,0,0.18534992,4.99678,3.7586684)"
       style="fill:#ffffff">
      <path
         id="path66"
         d="M 68.589358,96.528086 86.974134,78.143309 c 1.561999,-1.561998 1.561999,-4.094855 0,-5.656854 -1.561999,-1.561999 -4.094855,-1.561999 -5.656854,0 L 62.932504,90.871232 44.547727,72.486455 62.932504,54.101679 c 1.561999,-1.561999 1.561999,-4.094856 0,-5.656854 -1.561999,-1.561999 -4.094856,-1.561999 -5.656854,0 L 38.890873,66.829601 32.526912,60.46564 21.213204,71.779348 C 10.950256,82.042296 9.6788776,97.889973 17.396241,109.53744 L 0,126.93368 8.4852813,135.41896 25.881523,118.02272 c 11.647463,7.71736 27.49514,6.44598 37.758088,-3.81697 l 11.313708,-11.3137 z"
         inkscape:connector-curvature="0"
         style="fill:#ffffff" />
      <path
         id="path68"
         d="m 102.89204,74.953321 11.31372,-11.313712 c 10.26295,-10.262948 11.53433,-26.110625 3.81696,-37.758088 L 135.41896,8.48528 126.93368,0 109.53744,17.396239 C 97.889972,9.67888 82.042292,10.95025 71.779342,21.213202 l -11.3137,11.313708 c 41.502088,41.502087 0.33001,0.330023 42.426398,42.426411 z"
         inkscape:connector-curvature="0"
         style="fill:#ffffff" />
    </g>
  </g>
</svg>
